<?xml version="1.0" encoding="UTF-8" standalone="no"?>
<svg
   width="2189"
   height="1827"
   viewBox="0 0 2189 1827"
   version="1.1"
   data-svgtrace="1"
   data-svgtrace-version="1"
   id="half court"
   sodipodi:docname="court_2.0.svg"
   inkscape:version="1.4.2 (f4327f4, 2025-05-13)"
   xmlns:inkscape="http://www.inkscape.org/namespaces/inkscape"
   xmlns:sodipodi="http://sodipodi.sourceforge.net/DTD/sodipodi-0.dtd"
   xmlns="http://www.w3.org/2000/svg"
   xmlns:svg="http://www.w3.org/2000/svg">
  <defs
     id="defs4" />
  <sodipodi:namedview
     id="namedview4"
     pagecolor="#ffffff"
     bordercolor="#000000"
     borderopacity="0.25"
     inkscape:showpageshadow="2"
     inkscape:pageopacity="0.0"
     inkscape:pagecheckerboard="0"
     inkscape:deskcolor="#d1d1d1"
     inkscape:zoom="0.39"
     inkscape:cx="1094.8718"
     inkscape:cy="914.10256"
     inkscape:window-width="1920"
     inkscape:window-height="974"
     inkscape:window-x="-11"
     inkscape:window-y="-11"
     inkscape:window-maximized="1"
     inkscape:current-layer="layer1" />
  <path
     style="fill:#777071;stroke-width:2.48571"
     d="m 2092.4471,23.138504 c -14.5423,1.899869 -31.652,-3.083595 -45.0778,3.53923 -3.4087,94.818846 -2.3655,190.228116 -3.5537,285.274166 -0.5066,79.91681 -1.0131,159.83361 -1.5197,239.75045 -33.1041,65.94006 -73.6528,127.6408 -115.5677,188.17883 -8.2524,8.22354 8.0984,11.23571 11.9542,16.08183 74.9612,48.85515 149.3561,98.81413 226.4864,144.18112 9.872,7.544 4.5391,-10.64997 6.0723,-15.23835 3.0857,-287.08578 3.0738,-574.19435 4.4483,-861.291494 -27.3162,-1.152932 -55.5797,-0.195669 -83.2423,-0.475782 z"
     id="right_corner_3" />
  <path
     style="fill:#777071;stroke-width:2.48571"
     d="m 1642.9163,23.609431 c -1.5519,105.327399 0.5034,210.767129 -3.8402,316.020699 -7.8143,51.23243 -26.1916,101.10849 -51.8873,146.10335 -6.6901,11.47947 -14.0872,23.07116 -18.9653,35.21785 109.1183,71.27907 219.1635,141.18578 329.3766,210.75168 5.7068,3.46834 13.801,9.68698 17.8467,0.42724 47.554,-57.62706 85.5435,-122.70393 117.1829,-190.24454 -0.8924,-172.85445 -0.4586,-346.26181 -2.1847,-518.77148 -129.1074,0.330099 -258.7609,-0.659852 -387.5287,0.495201 z"
     id="right_corner_mid"
     onload="	" />
  <path
     style="fill:#777071;stroke-width:2.48571"
     d="m 1913.4999,757.63795 c -17.8027,9.64308 -29.5763,28.32779 -44.5268,41.82776 -83.3863,85.93722 -180.9143,158.16153 -288.7248,210.52659 -49.4174,25.2904 -101.7916,43.7786 -153.8027,62.7002 -14.7778,4.9839 -2.0782,21.879 -0.4564,31.3676 79.8545,218.0141 159.9227,435.9515 240.7453,653.5923 5.4545,13.6409 10.4037,27.7176 16.3223,41.0192 113.7266,3.8101 227.6131,1.6309 341.4021,2.0929 50.2951,-0.5743 101.1499,0.698 151.0412,-3.127 -0.1588,-292.3097 0.317,-584.7842 -0.2379,-876.99107 -85.2974,-53.01784 -168.5996,-109.33654 -254.7324,-160.95 -2.2135,-0.98736 -4.5354,-2.17988 -7.0299,-2.05848 z"
     id="right_45_3" />
  <path
     style="fill:#777071;stroke-width:2.48571"
     d="m 1563.5726,530.97187 c -19.4668,13.50492 -32.3943,34.96148 -50.3631,50.51788 -57.2266,59.36564 -129.2589,102.51687 -206.2437,131.02801 -5.8944,3.95276 -16.8865,5.06662 -19.759,11.94173 37.8204,111.37442 79.7874,221.36248 121.1348,331.45931 5.8945,14.4712 23.676,2.8333 33.8107,0.9787 105.7156,-36.951 207.2489,-87.20761 296.8552,-154.81083 55.4405,-41.15734 103.1752,-91.63258 151.4996,-140.67646 5.2452,-4.45269 13.5066,-14.13292 3.9131,-18.97299 -109.1856,-71.22353 -219.0819,-141.51588 -329.2844,-211.1692 -0.4527,-0.30971 -1.028,-0.44591 -1.5632,-0.29615 z"
     id="right_45_mid" />
  <path
     style="fill:#777071;stroke-width:2.48571"
     d="m 1287.8622,23.609431 c -2.0524,78.071809 0.2046,156.459789 -5.2094,234.331979 -5.7857,42.6291 -39.1918,73.36013 -66.9929,102.80759 74.4553,87.55581 147.3386,176.50672 222.9375,263.05363 7.5037,11.08556 17.7917,-4.91202 24.6956,-8.76824 52.5472,-46.63388 102.0865,-99.36498 130.2048,-164.7471 18.144,-40.41369 32.5108,-83.32537 38.496,-127.13941 0.3275,-99.94236 2.0028,-200.43394 1.4895,-300.03365 -115.1379,0.330813 -230.8227,-0.659669 -345.6211,0.495201 z"
     id="right_flowter" />
  <path
     style="fill:#777071;stroke-width:2.48571"
     d="m 1095.8747,23.721094 c -60.8897,0.54295 -122.3248,-0.233552 -182.87476,1.131194 -0.40642,75.445932 -0.90914,150.899922 -1.26227,226.340792 16.53341,49.94067 49.95846,97.56089 100.87783,116.49942 39.8063,19.91298 85.8986,18.88109 128.9439,13.44227 40.45,-11.06061 79.0265,-32.1211 105.2299,-65.58192 13.0966,-16.75448 22.5451,-36.82501 30.0001,-56.2714 0.3166,-78.66502 1.9864,-157.87898 1.4649,-236.201204 -60.7932,0.213616 -121.5864,0.427232 -182.3796,0.640848 z"
     id="layup" />
  <path
     style="fill:#777071;stroke-width:2.48571"
     d="m 576.93331,23.580301 c -5.52578,90.999189 -3.0492,182.358559 0.35269,273.400709 2.90171,95.15225 44.24197,186.2204 106.43108,257.2993 21.43432,24.14302 43.53777,49.15077 70.97394,66.40061 18.73945,-14.17548 30.75757,-36.18246 47.21503,-53.00321 C 860.18555,498.61733 919.45033,429.76066 976.69153,360.21982 945.17757,331.33952 912.82162,297.71117 906.8148,253.4409 903.07129,176.87256 907.53801,99.380567 901.5375,23.11423 793.39862,23.425936 684.76661,22.493565 576.93331,23.580301 Z"
     id="left_floater" />
  <path
     style="fill:#777071;stroke-width:2.48571"
     d="m 1202.7216,369.34219 c -30.3315,7.39291 -58.2926,26.78123 -90.4518,22.72512 -27.9368,-1.07928 -57.0085,4.35871 -82.7522,-9.31591 -14.2022,-3.26599 -28.1565,-13.15759 -42.70845,-12.74894 -27.3605,20.25744 -46.19528,50.02708 -69.10555,74.91332 -50.64399,61.34642 -104.19746,120.57384 -152.52598,183.67379 7.17772,12.55101 24.31296,16.56589 35.44072,25.1068 67.11643,41.20795 142.53475,68.22095 220.67036,78.35133 51.8478,7.8391 104.8992,5.96256 156.935,0.971 76.4755,-11.33941 153.0952,-31.92627 219.0373,-73.53523 10.62,-8.18315 26.6092,-11.93447 34.0395,-23.42219 -7.0888,-18.93128 -24.9196,-32.46402 -36.4749,-48.85012 -60.6069,-70.53416 -118.6124,-143.4245 -181.6708,-211.78091 -2.9899,-2.4642 -6.1279,-6.51098 -10.4332,-6.08806 z"
     id="front_floater" />
  <path
     style="fill:#777071;stroke-width:2.48571"
     d="m 920.69983,722.98359 c -7.95413,7.80531 -9.20861,22.4203 -14.65062,32.43611 -36.66666,99.38604 -75.08188,198.22203 -109.04656,298.5614 -5.41923,11.4642 15.05523,9.0827 21.88485,13.4099 74.84711,18.8089 151.48445,31.9723 228.534,36.7753 94.3947,2.5231 189.6383,1.8265 282.362,-18.216 23.2357,-5.5601 48.1902,-8.667 70.164,-17.132 -39.3414,-114.50692 -82.5238,-227.94243 -123.7031,-341.66434 -28.4996,-0.0976 -56.4857,10.32322 -84.9536,13.01313 -56.0959,6.83863 -113.2879,6.82369 -169.5158,1.38547 -34.10493,-3.75695 -66.97424,-15.17975 -101.07517,-18.56897 z"
     id="free_throw_line" />
  <path
     style="fill:#777071;stroke-width:2.48571"
     d="m 791.25821,1070.401 c -23.49949,50.8739 -39.58557,104.9498 -60.05593,157.1142 -69.12391,189.5854 -141.62899,377.9552 -209.30423,568.0541 -0.69082,6.2895 12.44543,0.695 15.96294,2.9858 281.02728,3.3951 562.09471,1.3959 843.13781,1.3933 95.4043,-0.762 191.3171,0.5484 286.4106,-2.0633 -6.8301,-33.5054 -22.1394,-65.3011 -32.8109,-97.8882 -75.8712,-204.8604 -150.6099,-410.1812 -227.3104,-614.7107 -2.722,-10.0309 -15.6031,-0.018 -22.3112,-0.857 -85.1835,19.3398 -172.3161,32.8887 -259.919,29.7721 -78.382,-0.2883 -157.04668,-4.0811 -233.85165,-20.7249 -33.62165,-6.208 -66.8162,-15.5954 -99.94804,-23.0754 z"
     id="top_of_the_key" />
  <path
     style="fill:#777071;stroke-width:2.48571"
     d="m 277.67176,756.43878 c -50.67782,27.68307 -97.21213,62.69947 -146.76881,92.45482 -37.643939,23.91321 -75.500642,47.71936 -112.760149,72.09267 -4.660037,82.18303 -1.837965,164.64333 -3.103515,246.93523 -0.211721,211.0992 -1.088358,422.7489 -0.125,633.5028 164.396684,-0.6418 329.066414,-0.4167 493.292904,-1.5924 84.29726,-225.6069 167.30759,-451.6912 251.05193,-677.4975 5.63879,-18.423 15.01652,-36.557 17.57999,-55.526 -54.288,-20.5497 -110.07096,-37.9408 -162.26129,-63.8881 C 495.12759,946.31404 386.33377,867.84601 295.29995,772.00848 c -5.90852,-4.8354 -10.9141,-12.13429 -17.62819,-15.5697 z"
     id="left_45_3" />
  <path
     style="fill:#777071;stroke-width:2.48571"
     d="m 158.58566,23.614286 c 0.0357,174.096604 -0.0711,348.210014 0.0534,522.296144 31.2174,63.85766 66.78788,126.46271 112.80385,180.88911 5.13112,3.91627 10.38912,15.62826 17.6913,7.85526 112.17828,-69.54072 223.31441,-140.81982 333.80292,-212.98803 12.9011,-5.65709 13.89154,-15.18257 4.60304,-25.89029 -25.05254,-47.9357 -48.16238,-97.54099 -56.82631,-151.39225 -9.08051,-38.61433 -2.95952,-78.87749 -5.08803,-118.24587 -0.70092,-67.6063 -0.0886,-135.766392 -1.62114,-203.02413 -135.06956,0.333872 -270.69462,-0.666171 -405.41903,0.500056 z"
     id="left_corner_mid" />
  <path
     style="fill:#777071;stroke-width:2.48571"
     d="m 639.9549,523.77204 c -107.18018,65.89689 -212.18991,135.62266 -318.41902,203.1586 -8.85766,7.78088 -23.54118,12.64027 -28.56144,23.40552 32.40542,41.89782 72.9597,77.12034 113.51267,111.02695 102.04158,83.83494 221.69256,143.66459 346.21571,186.28059 9.68743,2.3313 26.21999,14.4758 33.1907,1.1627 C 827.21211,942.27776 865.89954,834.609 905.3486,727.33845 911.26102,717.2817 900.34468,711.84587 892.38271,709.30735 810.81298,677.44958 735.39701,628.45515 677.41387,562.31208 664.65134,550.35295 655.64597,531.819 639.9549,523.77204 Z"
     id="left_45_mid" />
  <path
     style="fill:#777071;stroke-width:2.48571"
     d="m 17.642745,23.580301 c -4.658107,83.074399 -1.771857,166.416329 -2.99764,249.595769 0.192763,205.6733 -1.522926,411.37458 1.249873,617.03008 1.626959,4.86099 -1.85017,15.185 3.422712,17.70099 83.45402,-51.55224 166.21829,-104.38921 248.11991,-158.37204 7.97661,-4.87289 -5.5813,-13.01579 -6.88426,-18.54092 C 216.58413,673.42909 179.18321,611.24525 147.1572,546.30855 146.82295,371.97983 147.82359,197.09822 146.65714,23.11423 103.71614,23.425579 60.277184,22.492952 17.642745,23.580301 Z"
     id="left_corner_3"
     inkscape:label="left_corner_3" />
  <g
     id="Lines"
     inkscape:label="lines"
     style="fill:#000000">
    <path
       id="path19"
       style="fill:#000000;stroke-width:0.724638"
       inkscape:label="lines1"
       d="m 617.65172,476.16055 c 3.85297,9.71608 9.99543,18.61219 14.85932,27.92827 2.84296,5.53676 -0.28952,11.86966 -5.23664,14.92301 -69.01282,44.41723 -137.67958,89.39426 -207.06924,133.23932 -20.58819,13.26544 -41.67445,26.0383 -62.00911,39.51884 0.55923,3.52321 -1.08376,8.87436 0.77276,11.35218 91.45475,-58.72483 182.43401,-118.21977 274.80186,-175.49819 2.75405,-1.21833 5.84633,-5.06307 8.90087,-2.26308 14.88113,10.78132 24.51275,26.97517 37.31528,39.94559 31.93251,35.18995 68.44181,66.21091 108.63559,91.58823 33.92816,21.7641 70.41525,39.21399 107.77057,54.21478 4.84842,2.18125 11.88204,5.87106 9.94052,12.32941 -26.91113,75.9364 -55.15992,151.39071 -83.18017,226.92442 -12.34593,32.28646 -23.84712,64.91827 -37.17708,96.81577 -1.38679,3.5915 -3.72645,7.4769 -8.09044,7.415 -9.59927,0.5874 -18.20198,-5.2847 -27.26616,-7.7621 C 626.94894,1004.1574 507.81586,944.56446 406.43898,861.1015 390.17929,847.77946 374.40686,833.69233 358.5244,820.05491 c -0.71839,4.18127 -0.0298,9.21684 0.20805,13.60819 62.48059,55.20436 130.99614,103.63653 204.46554,143.10849 42.79038,23.03605 86.81013,43.93791 132.56253,60.43601 26.15715,10.0002 52.8017,18.7617 78.80781,29.1123 3.64386,1.304 0.65859,5.8674 0.6112,8.4805 -6.35167,23.6173 -16.11254,46.2461 -24.20504,69.3316 -25.3083,68.7217 -50.91624,137.3373 -76.02827,206.1284 3.00732,1.276 7.82227,0.305 11.20499,-0.088 26.63885,-72.6317 53.81286,-145.0839 80.03847,-217.8589 7.70253,-20.782 15.71565,-41.8529 25.19534,-61.663 43.22785,10.0627 86.24089,21.2798 130.04793,28.677 78.67735,14.0679 158.90615,15.144 238.60585,15.0753 65.8655,-0.1614 131.2326,-10.4582 195.6447,-23.4753 15.0216,-2.7345 29.8071,-6.7044 44.7878,-9.5264 2.6253,-0.4427 5.8733,0.1984 6.2217,3.384 17.4716,44.5674 33.5421,89.6955 50.4119,134.5038 16.2368,43.7291 32.4145,87.4799 48.5521,131.2458 2.6381,-0.2446 11.1293,2.3203 10.1976,-1.7061 -31.481,-86.2758 -63.4737,-172.3701 -94.5532,-258.7897 -1.8439,-4.8732 -3.4725,-12.4017 2.0385,-15.6053 30.8564,-12.3642 62.5209,-22.8616 93.2731,-35.5905 37.5814,-14.9257 73.5471,-33.5563 109.2504,-52.44992 74.1408,-41.08153 143.0362,-91.65498 204.9493,-149.43271 -0.1041,-4.86894 0.3716,-9.87381 -0.086,-14.65976 -6.5372,4.93524 -12.4089,11.69515 -18.707,17.32035 -85.2427,82.20222 -188.6873,143.61644 -297.423,189.37954 -29.6802,12.1712 -59.607,24.1838 -90.4406,33.0259 -5.4986,1.8451 -13.6187,0.8305 -15.2188,-5.8167 -37.3576,-97.47793 -73.9797,-195.2616 -108.5166,-293.77532 -4.4423,-12.69637 -8.7865,-25.42687 -13.1283,-38.158 4.4805,-6.45891 12.9415,-8.01048 19.5539,-11.43003 38.7895,-15.02153 76.6433,-32.73803 111.8174,-55.04416 41.7055,-25.85251 78.92,-58.46774 112.1623,-94.43758 10.1485,-10.97052 19.7661,-22.70505 31.8994,-31.5503 2.5914,-1.47054 4.8468,2.37141 7.2976,3.03361 87.2569,54.42979 173.7307,110.13589 260.1404,165.9117 1.8898,-2.33776 0.1789,-7.62186 0.7714,-11.00261 -28.0467,-18.46377 -56.8547,-36.20573 -85.1535,-54.45613 -58.7034,-37.60541 -117.5539,-75.05932 -175.7008,-113.47578 -3.2503,-1.35589 0.401,-4.74712 0.8425,-6.82095 6.2705,-12.92014 14.392,-24.93126 20.6775,-37.78535 -1.1548,-2.47819 -5.2457,-0.68694 -7.402,-1.26953 -5.0067,-1.30477 -5.2902,5.41186 -7.8097,8.22719 -29.7762,51.23722 -71.722,94.19408 -115.975,133.07062 -5.2467,3.63979 -9.8343,10.34371 -16.8446,10.02692 -5.0632,-1.32326 -7.1333,-7.24684 -10.9277,-10.36451 -40.3031,-46.52731 -80.092,-93.50098 -119.5764,-140.72528 -3.5993,0.0735 -8.6983,-1.05865 -11.6154,0.42884 31.9469,37.82733 63.7911,75.76596 95.6421,113.6809 11.8374,14.89186 26.3772,27.95422 34.3412,45.56814 -8.0317,11.10255 -21.9235,15.08819 -32.8575,22.58001 -48.0335,31.03338 -102.9083,49.9237 -158.3354,62.87989 -37.236,8.57604 -75.1602,14.50623 -113.4483,14.83946 -33.9105,0.24672 -68.073,1.64385 -101.6709,-3.74373 -71.08226,-9.16065 -140.5622,-31.35066 -203.09456,-66.492 -15.10816,-8.21169 -29.4851,-17.66719 -44.60435,-25.85875 -4.53892,-2.81922 -9.27586,-6.41676 -11.68053,-11.28991 14.01008,-19.98034 30.06039,-38.50907 45.4191,-57.48088 26.49915,-31.81099 53.53752,-63.34647 80.15975,-94.9577 -3.60058,-0.81213 -8.07682,-0.34932 -11.89282,-0.21229 -29.97766,35.56194 -60.25318,70.87758 -90.29052,106.38389 -10.60618,12.60668 -20.28445,26.38058 -33.07905,36.85659 -3.08625,1.73453 -5.86719,-2.41051 -8.51306,-3.50204 -27.19098,-19.72137 -49.69768,-45.08273 -71.29397,-70.61579 -17.87999,-21.57859 -33.75806,-44.74445 -47.67684,-69.05472 -3.44495,-0.42788 -7.4536,-0.36442 -10.92193,-0.034 z m 305.01019,247.18637 c 34.24001,4.06183 67.33719,14.83222 101.66449,18.45663 40.0763,4.37093 80.5226,4.06241 120.7571,2.56102 32.659,-1.29611 65.0148,-6.39753 96.9434,-13.16339 11.2385,-1.82906 22.7851,-4.54019 34.1874,-3.11581 9.0418,23.3078 17.2962,47.10421 26.073,70.58394 32.1932,88.14637 65.2406,176.002 95.5355,264.81959 0.3332,2.114 3.0727,5.9532 -0.7016,6.2815 -26.0559,8.3942 -53.1976,12.7501 -79.9004,18.5662 -46.6357,9.1996 -94.1277,13.7179 -141.6103,15.5784 -42.2564,0.5987 -84.5461,1.2938 -126.7937,-0.012 -75.3325,-4.1352 -149.97638,-17.2162 -223.21247,-34.9765 -8.27137,-2.6167 -16.76522,-4.3762 -25.09906,-6.7552 -3.43473,-0.6494 -4.7651,-4.2483 -3.39533,-7.2521 9.88211,-31.1741 21.34523,-61.84024 32.2904,-92.65541 28.1055,-77.09498 56.94939,-154.04728 85.95151,-230.72971 1.65582,-3.03398 3.18221,-8.08715 7.31006,-8.18756 z M -517.95945,-43.650794 c 0,638.095234 0,1276.190494 0,1914.285694 67.47771,1.1648 135.85144,0.1664 203.67374,0.4992 1006.8783,0 2013.75671,0 3020.63491,0 1.1648,-67.4778 0.1664,-135.8516 0.4992,-203.6738 0,-570.3703 0,-1140.74073 0,-1711.111094 -67.4778,-1.164739 -135.8516,-0.166303 -203.6738,-0.499132 -1006.8783,0 -2013.75662,0 -3020.63492,0 z M 1278.1343,141.58606 c -0.7973,39.98213 0.056,80.3157 -1.7703,120.0787 -14.57,39.059 -40.5102,74.78821 -77.2719,95.46941 -28.121,16.99264 -60.2705,27.92708 -93.3997,26.89569 -30.6164,1.53136 -61.7862,-1.66599 -89.9422,-14.39916 -38.61252,-14.68097 -69.65334,-45.0483 -88.42506,-81.46105 -6.12579,-13.1247 -14.35976,-26.32398 -16.14338,-40.65276 0.86175,-74.05913 0.40356,-148.155271 2.70092,-222.185169 121.77562,-2.106504 243.59082,-1.340142 365.38322,-1.965526 -0.3772,39.406622 -0.7545,78.813245 -1.1316,118.219865 z M 739.43762,23.90563 c 54.1584,0.134341 108.31681,0.268684 162.47521,0.403026 4.95696,77.295444 2.09876,154.894674 6.52592,232.201754 3.58017,34.83132 28.65398,62.39421 51.67592,86.72015 3.46738,7.05711 20.68023,13.57639 13.882,21.03519 -30.13426,36.89842 -61.87626,72.63369 -91.35157,109.9685 2.16434,3.94242 9.44628,0.18005 11.56684,-2.75917 30.86957,-32.62881 55.38877,-71.47224 90.46996,-99.9411 10.3108,-4.56079 21.4003,3.70665 31.4268,6.06332 18.1163,7.69808 37.0705,14.84345 57.1427,13.27881 29.6343,-1.31262 60.9803,4.64772 88.9978,-7.96219 14.1122,-4.37792 27.8394,-12.17486 42.6832,-13.19046 12.0605,5.22121 18.5113,18.46695 28,27.02213 23.2862,25.09071 44.2771,52.30593 68.1651,76.79422 1.3814,3.30808 11.6395,3.2397 7.4808,-1.29279 -30.7502,-37.5285 -62.2962,-74.40062 -93.4834,-111.56683 26.9927,-29.03622 59.5286,-58.80086 66.093,-99.91009 7.964,-78.83702 2.6707,-158.24233 7.084,-237.255095 115.3843,0 230.7684,0 346.1527,0 -1.134,97.448535 -0.091,194.943015 -2.9333,292.360095 -2.1486,44.11757 -17.7437,86.39403 -34.3869,126.86423 -4.335,11.10551 -11.1015,22.22251 -14.2174,33.15662 11.0513,3.17291 13.8668,-10.01863 17.947,-16.99528 16.9606,-36.68743 31.2703,-75.34732 36.552,-115.58634 6.1738,-87.66316 3.517,-175.65649 4.5627,-263.46872 0.6692,-18.756623 -0.8103,-37.710604 1.7486,-56.330605 129.0095,0 258.0192,0 387.0287,0 0.9781,173.235565 2.315,346.471505 2.1081,519.711055 -33.2584,66.96065 -69.6157,133.37429 -118.5917,190.27159 -7.7,8.34049 -17.4537,-3.27024 -24.5732,-6.44295 -19.3078,-11.53392 -37.9597,-24.68826 -57.3744,-35.75076 -4.3361,6.20112 3.6447,12.41179 8.4884,15.28708 19.2147,14.11995 41.053,25.0336 58.6401,41.17374 -1.6687,10.02653 -12.355,16.06097 -18.1703,23.75673 -15.9827,17.46113 -34.643,32.69414 -48.8993,51.61529 -1.9989,4.14174 -1.2205,16.42346 3.8917,8.20651 24.6251,-23.63364 46.8373,-50.04416 73.4706,-71.46605 8.6402,-6.20164 16.9627,4.85824 24.6465,7.78149 81.2394,49.67773 160.8129,102.0273 241.3288,152.87389 0,292.59568 0,585.19138 0,877.78708 -90.425,3.29 -180.9535,1.5586 -271.4223,2.0924 -70.4134,-0.4335 -140.8819,0.5487 -211.2598,-1.5181 -11.3273,2.5317 -13.6705,-7.0745 -16.704,-15.7497 -52.8157,-139.0957 -103.076,-279.1574 -155.5231,-418.385 -1.918,-5.1126 -6.0594,-17.5153 -13.1618,-12.2853 17.5705,51.7785 37.643,103.0093 56.2421,154.5483 32.1695,88.2526 65.6939,176.0429 96.8135,264.6575 2.4314,8.854 5.8552,17.6589 6.3938,26.86 -218.2456,1.737 -436.5137,0.8327 -654.7681,0.9365 -163.23938,-0.4061 -326.49563,0.1096 -489.72285,-1.6247 5.29342,-24.2718 15.94428,-47.3314 23.66173,-70.9835 45.14825,-125.3029 92.80849,-249.8075 138.33293,-374.9119 -6.10312,-3.7751 -10.73306,2.9466 -12.09771,8.3232 -36.69408,94.3931 -70.57586,189.8771 -106.25246,284.666 -19.23168,51.7879 -38.48957,103.5662 -57.73489,155.349 -164.62298,-0.1295 -329.24208,1.2343 -493.86162,2.1083 0.797238,-290.7836 0.307619,-581.576 2.52046,-872.35248 -1.99946,-10.30911 7.110127,-13.85124 14.442572,-18.39079 71.363648,-45.3383 142.612348,-90.87133 213.712338,-136.59754 10.78193,-6.11864 21.03782,-13.96454 32.69579,-18.16084 22.73127,18.4043 41.93981,41.1367 64.0067,60.47557 4.79841,2.63194 8.7949,11.30236 14.71354,10.57478 2.9869,-9.08605 -8.539,-15.00457 -12.9045,-21.3898 -17.15334,-18.13716 -35.81974,-35.37616 -50.34265,-55.67184 2.48165,-9.40866 13.97588,-13.27374 20.77062,-19.25178 13.86603,-10.41458 30.62508,-17.57606 42.64703,-30.17468 2.6444,-4.0794 -1.01217,-10.6184 -5.37263,-5.08433 -22.98946,13.16982 -44.47903,29.66611 -68.65079,40.38628 -13.57069,-8.24403 -21.86992,-23.34938 -32.02505,-35.28336 -36.75029,-48.31862 -65.62948,-101.91924 -93.19818,-155.83457 0,-174.0441 0,-348.08821 0,-522.132315 135.64713,0 271.29424,0 406.94135,0 0.74605,101.699485 1.27799,203.481215 2.91683,305.123265 8.78,50.31394 25.3003,99.2981 49.42073,144.3156 2.26609,4.73754 14.53624,4.38172 8.23898,-2.06441 -27.827,-53.60916 -46.12816,-112.65181 -47.88433,-173.26732 -3.73754,-80.25271 -2.96443,-160.66636 -2.25456,-240.983597 0.0886,-11.074556 1.02631,-22.109381 1.93835,-33.139038 54.15943,0.135374 108.31886,0.270749 162.47829,0.406125 z M 82.61098,23.515005 c 21.50299,0 43.00596,0 64.50894,0 0.0372,174.159705 -0.0744,348.337025 0.0558,522.485745 33.75724,67.1765 73.2411,131.4266 118.56089,191.42174 3.11902,4.05061 7.31043,10.96235 0.002,13.19284 -80.79617,54.10584 -162.8995,106.34007 -245.894245,157.00496 -5.774968,0.63576 -2.173968,-9.02605 -3.345111,-11.92956 C 15.129111,616.32127 15.354159,336.94162 16.390143,57.570973 17.064048,46.246825 15.283302,34.628437 18.009048,23.515005 c 21.533984,0 43.067968,0 64.601932,0 z m 2093.08032,0 c -0.2453,279.595295 -1.5757,559.193725 -4.0737,838.777285 -1.2208,12.97557 0.9127,27.03106 -2.7652,39.40973 -19.5746,-8.13843 -36.7207,-21.96234 -55.2207,-32.44561 -61.8301,-39.07679 -123.7622,-78.11712 -183.9722,-119.64703 -3.966,-2.34073 -8.5043,-6.95882 -2.7166,-10.74386 41.0925,-60.39063 81.352,-121.568 114.8292,-186.58068 1.5889,-175.32235 1.6493,-350.66814 5.1246,-525.967256 14.6668,-4.293844 30.6428,-1.492798 45.7806,-2.699243 27.6706,-0.199643 55.3429,-0.06282 83.014,-0.103336 z" />
  </g>
</svg>
